PathFileType	4	(X/Y/Z)	/Users/itak/Documents/Research/Walk-IL/dataset/trc/00088_00006.trc
DataRate	CameraRate	NumFrames	NumMarkers	Units	OrigDataRate	OrigDataStartFrame	OrigNumFrames
100.000000	100.000000	4	53	mm	100.000000	381	508
Frame#	Time	RPSI			LPSI			L3			STRN			T10			C7			CLAV			RBAK			LBAK			LSHO			LUPA			LAEL			LAOL			LWTS			LWPS			LFRA			LIFD			LHPS			LHTS			RSHO			RUPA			RAEL			RAOL			RWTS			RWPS			RFRA			RIFD			RHTS			RHPS			RBHD			LFHD			RFHD			LBHD			LHIP			RHIP			RASI			LASI			LKNE			LTHI			LANK			LTIP			LTOE			LMT1			LMT5			LHEE			RKNE			RTHI			RANK			RTIP			RTOE			RMT1			RMT5			RHEE			
		X1	Y1	Z1	X2	Y2	Z2	X3	Y3	Z3	X4	Y4	Z4	X5	Y5	Z5	X6	Y6	Z6	X7	Y7	Z7	X8	Y8	Z8	X9	Y9	Z9	X10	Y10	Z10	X11	Y11	Z11	X12	Y12	Z12	X13	Y13	Z13	X14	Y14	Z14	X15	Y15	Z15	X16	Y16	Z16	X17	Y17	Z17	X18	Y18	Z18	X19	Y19	Z19	X20	Y20	Z20	X21	Y21	Z21	X22	Y22	Z22	X23	Y23	Z23	X24	Y24	Z24	X25	Y25	Z25	X26	Y26	Z26	X27	Y27	Z27	X28	Y28	Z28	X29	Y29	Z29	X30	Y30	Z30	X31	Y31	Z31	X32	Y32	Z32	X33	Y33	Z33	X34	Y34	Z34	X35	Y35	Z35	X36	Y36	Z36	X37	Y37	Z37	X38	Y38	Z38	X39	Y39	Z39	X40	Y40	Z40	X41	Y41	Z41	X42	Y42	Z42	X43	Y43	Z43	X44	Y44	Z44	X45	Y45	Z45	X46	Y46	Z46	X47	Y47	Z47	X48	Y48	Z48	X49	Y49	Z49	X50	Y50	Z50	X51	Y51	Z51	X52	Y52	Z52	X53	Y53	Z53	

382	3.81	-91.08640289306641	1012.873840332031	733.8502197265625	81.00484466552734	995.455810546875	698.151123046875	-0.610575795173645	1068.465698242188	713.6400146484375	49.33587646484375	1273.036010742188	960.2234497070312	-2.089765787124634	1202.590454101562	696.6610107421875	13.91200160980225	1470.295776367188	749.618408203125	47.19857406616211	1387.080200195312	927.96875	-74.59606170654297	1331.715454101562	703.1343383789062	106.2595520019531	1430.80810546875	708.01708984375	198.5322113037109	1436.4599609375	791.9286499023438	267.46728515625	1310.678344726562	749.5953369140625	291.6450500488281	1097.358276367188	747.6763305664062	190.5801696777344	1084.106323242188	713.3890380859375	259.7509155273438	855.2772216796875	844.882568359375	297.1758117675781	846.01904296875	769.90478515625	304.4336242675781	987.7800903320312	759.5271606445312	244.5650177001953	670.1870727539062	859.5694580078125	301.670166015625	764.298095703125	799.8796997070312	269.319580078125	773.0429077148438	862.233154296875	-146.7391204833984	1435.871337890625	843.881591796875	-213.7132568359375	1366.8662109375	845.8201293945312	-249.1816864013672	1100.397338867188	839.8167724609375	-151.5171356201172	1078.234497070312	837.9176025390625	-179.7328643798828	870.3294677734375	1002.916259765625	-240.5436859130859	843.9227905273438	945.5134887695312	-252.4337463378906	1021.656433105469	862.0614624023438	-158.2520294189453	686.1085205078125	1038.767578125	-173.0943908691406	775.2252197265625	1042.807861328125	-234.7508087158203	762.3369140625	997.00634765625	-45.17292022705078	1632.738037109375	790.1292724609375	84.98834228515625	1693.2978515625	959.9138793945312	-39.64268493652344	1679.034423828125	955.3905029296875	90.72345733642578	1655.258056640625	785.4454345703125	187.0027008056641	942.0243530273438	790.2574462890625	-157.8540344238281	946.4024047851562	816.2294921875	-116.103141784668	968.8638916015625	935.4265747070312	150.4349822998047	962.6849365234375	909.9155883789062	182.3294525146484	528.1683959960938	1017.815734863281	214.0094604492188	644.589599609375	932.0573120117188	234.2577514648438	58.34264755249023	1089.313232421875	223.101318359375	288.5552673339844	1044.704345703125	214.3825378417969	137.0975646972656	1273.768676757812	165.3333587646484	115.1865310668945	1228.45556640625	265.75146484375	85.84872436523438	1189.549682617188	160.7521667480469	41.10061264038086	1036.518310546875	-87.25945281982422	502.8268432617188	863.28076171875	-136.1617736816406	769.2159423828125	894.4324340820312	-79.51915740966797	43.0385627746582	696.04150390625	-85.39082336425781	378.2401428222656	827.3569946289062	34.25772094726562	39.24398803710938	885.4222412109375	46.93539047241211	44.87174224853516	813.8086547851562	-52.48352813720703	44.77346801757812	818.0780029296875	-42.85832595825195	49.71481323242188	633.0157470703125	
383	3.82	-88.00344085693359	1012.277404785156	739.9368896484375	84.11203765869141	994.8179321289062	704.7907104492188	2.423479795455933	1067.609008789062	720.06298828125	51.89117431640625	1272.453491210938	966.318603515625	0.9901837110519409	1201.682373046875	702.7786865234375	16.95522308349609	1469.4951171875	755.3651733398438	49.90064239501953	1386.458129882812	933.945068359375	-71.46754455566406	1330.844848632812	708.8823852539062	109.4169387817383	1429.900634765625	714.0418701171875	201.5023040771484	1435.640258789062	798.1447143554688	270.4713134765625	1309.697509765625	756.2156372070312	294.5701599121094	1096.435302734375	754.7269287109375	193.4971008300781	1083.121459960938	720.2948608398438	262.9447021484375	854.0114135742188	851.2337036132812	300.5709533691406	845.1243286132812	776.3309326171875	307.4807739257812	986.9098510742188	766.3997802734375	248.1869354248047	668.8106079101562	865.1340942382812	305.219482421875	763.303466796875	806.0088500976562	272.6148376464844	771.7084350585938	868.2926635742188	-143.8965911865234	1435.1669921875	849.3541870117188	-210.9336090087891	1366.142578125	851.196044921875	-246.0735015869141	1099.617797851562	845.4666137695312	-148.5212707519531	1077.510009765625	843.8489379882812	-177.0542602539062	869.7591552734375	1009.062316894531	-237.6521453857422	843.2677001953125	951.5103759765625	-249.3860473632812	1020.909545898438	867.8070678710938	-155.7166900634766	685.6424560546875	1045.272827148438	-170.5261840820312	774.760009765625	1049.130004882812	-232.2270050048828	761.79296875	1003.027282714844	-42.19962692260742	1631.84814453125	795.3538208007812	87.32006072998047	1692.858520507812	965.4671020507812	-37.31139373779297	1678.50927734375	960.540283203125	93.67704010009766	1654.472778320312	791.1281127929688	189.9033355712891	941.3274536132812	797.347412109375	-155.0377349853516	945.8776245117188	822.1177368164062	-113.7840347290039	968.199462890625	941.3814086914062	152.8717651367188	961.8368530273438	916.7525024414062	184.0636444091797	527.1920776367188	1023.858764648438	215.2924652099609	643.6395263671875	938.4698486328125	233.2705993652344	56.89641189575195	1094.55078125	223.4325561523438	287.0398864746094	1050.17333984375	215.8491821289062	135.23388671875	1279.361572265625	166.2063140869141	113.6642532348633	1234.578125	266.0192260742188	84.00818634033203	1194.44140625	159.1614379882812	40.12974548339844	1042.595947265625	-85.24378204345703	502.1604309082031	868.5850830078125	-133.8287811279297	768.5639038085938	899.8916015625	-79.42448425292969	43.74982070922852	696.2466430664062	-84.03216552734375	377.7232360839844	831.5636596679688	34.25809478759766	39.16679000854492	885.5079956054688	46.89319229125977	44.92248916625977	813.98779296875	-52.48518371582031	44.70873641967773	818.2528076171875	-42.88679504394531	51.05954742431641	633.2229614257812	
384	3.83	-84.87336730957031	1011.732421875	746.057373046875	87.26418304443359	994.2110595703125	711.4656372070312	5.484644889831543	1066.77392578125	726.5062255859375	54.4932746887207	1271.917724609375	972.422607421875	4.081315994262695	1200.795043945312	708.9229125976562	20.00475120544434	1468.707641601562	761.113037109375	52.62844848632812	1385.880493164062	939.9212036132812	-68.33529663085938	1329.9892578125	714.6591796875	112.5916595458984	1429.01806640625	720.05810546875	204.4933013916016	1434.873413085938	804.3457641601562	273.5091552734375	1308.763061523438	762.8378295898438	297.5227966308594	1095.565795898438	761.8287353515625	196.4316558837891	1082.171997070312	727.2794799804688	266.2181701660156	852.8206787109375	857.71923828125	304.037841796875	844.2960815429688	782.8890380859375	310.5715637207031	986.0999145507812	773.3557739257812	251.9409637451172	667.50927734375	870.868896484375	308.8659362792969	762.3828125	812.2842407226562	276.0032958984375	770.4488525390625	874.4944458007812	-141.0262603759766	1434.503540039062	854.8472290039062	-208.1285705566406	1365.476440429688	856.60205078125	-242.9436187744141	1098.903564453125	851.0751342773438	-145.5047302246094	1076.852172851562	849.7404174804688	-174.3819580078125	869.1697387695312	1015.05908203125	-234.7724456787109	842.6310424804688	957.3421630859375	-246.3191375732422	1020.218322753906	873.4778442382812	-153.2295989990234	685.112060546875	1051.474365234375	-167.9894104003906	774.22412109375	1055.233276367188	-229.7495269775391	761.246826171875	1008.8095703125	-39.2103157043457	1630.98828125	800.5608520507812	89.66579437255859	1692.459838867188	970.992431640625	-34.96184539794922	1678.0185546875	965.665771484375	96.65110778808594	1653.713989257812	796.78564453125	192.8304443359375	940.6517333984375	804.5037231445312	-152.1874237060547	945.3988647460938	828.0115356445312	-111.4536437988281	967.5940551757812	947.3667602539062	155.3311004638672	961.0120849609375	923.6248168945312	185.7488403320312	526.1260375976562	1030.013793945312	216.4789123535156	642.7083740234375	945.0303955078125	232.1638336181641	55.20490646362305	1098.334838867188	223.6017150878906	285.2599487304688	1055.024291992188	217.1738739013672	132.3424377441406	1283.794067382812	166.9173431396484	111.2316665649414	1239.46142578125	266.1523742675781	81.53795623779297	1197.967895507812	157.4201507568359	39.02227783203125	1047.1865234375	-83.21435546875	501.5462951660156	873.915771484375	-131.4575347900391	767.9605712890625	905.3659057617188	-79.33701324462891	44.58251953125	696.4667358398438	-82.68982696533203	377.2640075683594	835.7952270507812	34.25182342529297	39.09549331665039	885.5880737304688	46.85007476806641	45.00287628173828	814.18115234375	-52.47295761108398	44.65270614624023	818.43701171875	-42.89130020141602	52.56081771850586	633.4627685546875	
385	3.84	-81.69603729248047	1011.241516113281	752.2176513671875	90.474853515625	993.620361328125	718.1895751953125	8.593255996704102	1065.954833984375	732.9833984375	57.13978576660156	1271.431884765625	978.5389404296875	7.205952644348145	1199.924682617188	715.0977783203125	23.06542015075684	1467.934692382812	766.8565673828125	55.37350845336914	1385.351318359375	945.8983764648438	-65.18764495849609	1329.144287109375	720.46044921875	115.785758972168	1428.158935546875	726.0672607421875	207.5057830810547	1434.159545898438	810.5371704101562	276.5828247070312	1307.876098632812	769.4639282226562	300.5080871582031	1094.74658203125	768.9736938476562	199.392333984375	1081.256103515625	734.3323974609375	269.5694580078125	851.7094116210938	864.3410034179688	307.5662231445312	843.5299072265625	789.5758056640625	313.708984375	985.3440551757812	780.3873291015625	255.8059844970703	666.288330078125	876.7952270507812	312.590087890625	761.5359497070312	818.7092895507812	279.4868774414062	769.2738037109375	880.84619140625	-138.1330718994141	1433.876098632812	860.3547973632812	-205.2896270751953	1364.856689453125	862.0340576171875	-239.8039398193359	1098.244384765625	856.6441040039062	-142.4665832519531	1076.25146484375	855.5933227539062	-171.7195281982422	868.5560913085938	1020.907409667969	-231.9100952148438	842.0064086914062	963.0140991210938	-243.2406768798828	1019.571655273438	879.0795288085938	-150.7825317382812	684.5096435546875	1057.37060546875	-165.4745025634766	773.6181030273438	1061.11962890625	-227.2613525390625	760.6881103515625	1014.402648925781	-36.20760345458984	1630.167358398438	805.7529907226562	92.02416229248047	1692.103393554688	976.4935302734375	-32.59530258178711	1677.566528320312	970.7672119140625	99.64183807373047	1652.987426757812	802.417724609375	195.7773895263672	939.9678955078125	811.7100830078125	-149.3182830810547	944.9821166992188	833.9168701171875	-109.1070251464844	967.0530395507812	953.3988647460938	157.8243103027344	960.20703125	930.5494995117188	187.3260040283203	524.9542236328125	1036.224975585938	217.5760803222656	641.7537231445312	951.69580078125	231.0277404785156	53.39550399780273	1100.939819335938	223.6321411132812	283.2843933105469	1059.37646484375	218.2621459960938	128.547119140625	1287.307250976562	167.4246368408203	107.9818878173828	1243.316528320312	266.1400756835938	78.57694244384766	1200.42529296875	155.6663055419922	37.85966491699219	1050.50732421875	-81.18675231933594	500.9961242675781	879.270751953125	-129.0658874511719	767.4234008789062	910.8695068359375	-79.27626800537109	45.54911422729492	696.7042236328125	-81.37810516357422	376.8787231445312	840.0496215820312	34.23881912231445	39.02905654907227	885.666015625	46.80026626586914	45.12710952758789	814.3903198242188	-52.46036529541016	44.6090202331543	818.6339111328125	-42.88011932373047	54.2252311706543	633.74365234375	
